<svg width="15" height="21" viewBox="0 0 15 21" fill="none" xmlns="http://www.w3.org/2000/svg">
<path d="M7.26916 20.769C5.43456 20.769 3.93746 20.4791 2.77786 19.8993C1.61825 19.3195 1.03845 18.571 1.03845 17.6537C1.03845 17.2383 1.16393 16.8532 1.41489 16.4984C1.66585 16.1436 2.01633 15.8364 2.46632 15.5768L4.10188 17.1085C3.94612 17.1777 3.77737 17.2556 3.59564 17.3421C3.41391 17.4287 3.27112 17.5325 3.16728 17.6537C3.39228 17.9306 3.9115 18.1729 4.72495 18.3806C5.53841 18.5883 6.38648 18.6921 7.26916 18.6921C8.15184 18.6921 9.00424 18.5883 9.82635 18.3806C10.6485 18.1729 11.172 17.9306 11.397 17.6537C11.2759 17.5152 11.1201 17.4027 10.9297 17.3162C10.7393 17.2296 10.5576 17.1518 10.3845 17.0825L11.9941 15.5249C12.4787 15.8018 12.8508 16.1176 13.1105 16.4724C13.3701 16.8272 13.4999 17.221 13.4999 17.6537C13.4999 18.571 12.9201 19.3195 11.7605 19.8993C10.6009 20.4791 9.10376 20.769 7.26916 20.769ZM7.29512 15.0575C9.00857 13.7941 10.298 12.5263 11.1634 11.2542C12.0287 9.98212 12.4614 8.70569 12.4614 7.42493C12.4614 5.65956 11.8989 4.32688 10.7739 3.42689C9.64895 2.5269 8.48069 2.0769 7.26916 2.0769C6.05763 2.0769 4.88938 2.5269 3.76439 3.42689C2.6394 4.32688 2.0769 5.65956 2.0769 7.42493C2.0769 8.58453 2.50094 9.79173 3.34901 11.0465C4.19708 12.3013 5.51245 13.6383 7.29512 15.0575ZM7.26916 17.6537C4.8288 15.8537 3.00718 14.1056 1.80431 12.4095C0.601437 10.7134 0 9.05184 0 7.42493C0 6.19609 0.220671 5.1187 0.662013 4.19275C1.10335 3.2668 1.67018 2.49228 2.36248 1.86921C3.05478 1.24614 3.83362 0.778839 4.69899 0.467303C5.56437 0.155768 6.42109 0 7.26916 0C8.11723 0 8.97395 0.155768 9.83933 0.467303C10.7047 0.778839 11.4835 1.24614 12.1758 1.86921C12.8681 2.49228 13.435 3.2668 13.8763 4.19275C14.3177 5.1187 14.5383 6.19609 14.5383 7.42493C14.5383 9.05184 13.9369 10.7134 12.734 12.4095C11.5311 14.1056 9.70952 15.8537 7.26916 17.6537ZM7.26916 9.34606C7.84031 9.34606 8.32925 9.1427 8.73597 8.73597C9.1427 8.32925 9.34606 7.84031 9.34606 7.26916C9.34606 6.69801 9.1427 6.20907 8.73597 5.80235C8.32925 5.39562 7.84031 5.19226 7.26916 5.19226C6.69801 5.19226 6.20907 5.39562 5.80235 5.80235C5.39562 6.20907 5.19226 6.69801 5.19226 7.26916C5.19226 7.84031 5.39562 8.32925 5.80235 8.73597C6.20907 9.1427 6.69801 9.34606 7.26916 9.34606Z" fill="#374FA1"/>
</svg>
