<svg width="27" height="20" viewBox="0 0 27 20" fill="none" xmlns="http://www.w3.org/2000/svg">
<path d="M0 19.5612V16.138C0 15.4452 0.178292 14.8084 0.534877 14.2277C0.891461 13.647 1.36521 13.2038 1.95612 12.8982C3.21945 12.2665 4.50315 11.7928 5.80723 11.4769C7.11131 11.1611 8.43577 11.0032 9.7806 11.0032C11.1254 11.0032 12.4499 11.1611 13.754 11.4769C15.0581 11.7928 16.3418 12.2665 17.6051 12.8982C18.196 13.2038 18.6697 13.647 19.0263 14.2277C19.3829 14.8084 19.5612 15.4452 19.5612 16.138V19.5612H0ZM22.0064 19.5612V15.8935C22.0064 14.9969 21.7567 14.136 21.2575 13.3108C20.7583 12.4856 20.0502 11.7775 19.1333 11.1866C20.1725 11.3088 21.1506 11.5177 22.0675 11.8131C22.9844 12.1086 23.8402 12.4703 24.6349 12.8982C25.3684 13.3057 25.9288 13.7591 26.3159 14.2583C26.7031 14.7575 26.8967 15.3026 26.8967 15.8935V19.5612H22.0064ZM9.7806 9.7806C8.43577 9.7806 7.28451 9.30176 6.32683 8.34408C5.36914 7.38639 4.8903 6.23513 4.8903 4.8903C4.8903 3.54547 5.36914 2.39421 6.32683 1.43653C7.28451 0.478842 8.43577 0 9.7806 0C11.1254 0 12.2767 0.478842 13.2344 1.43653C14.1921 2.39421 14.6709 3.54547 14.6709 4.8903C14.6709 6.23513 14.1921 7.38639 13.2344 8.34408C12.2767 9.30176 11.1254 9.7806 9.7806 9.7806ZM22.0064 4.8903C22.0064 6.23513 21.5275 7.38639 20.5698 8.34408C19.6121 9.30176 18.4609 9.7806 17.1161 9.7806C16.8919 9.7806 16.6066 9.75513 16.2603 9.70419C15.9139 9.65325 15.6286 9.59722 15.4044 9.53609C15.9546 8.88405 16.3774 8.16069 16.6729 7.36602C16.9683 6.57134 17.1161 5.7461 17.1161 4.8903C17.1161 4.0345 16.9683 3.20926 16.6729 2.41459C16.3774 1.61991 15.9546 0.896555 15.4044 0.244515C15.6897 0.142634 15.975 0.076411 16.2603 0.0458466C16.5455 0.0152822 16.8308 0 17.1161 0C18.4609 0 19.6121 0.478842 20.5698 1.43653C21.5275 2.39421 22.0064 3.54547 22.0064 4.8903ZM2.44515 17.1161H17.1161V16.138C17.1161 15.9139 17.06 15.7101 16.948 15.5267C16.8359 15.3433 16.6882 15.2007 16.5048 15.0988C15.4044 14.5486 14.2939 14.136 13.1732 13.8609C12.0526 13.5859 10.9217 13.4483 9.7806 13.4483C8.63953 13.4483 7.50865 13.5859 6.38796 13.8609C5.26726 14.136 4.15676 14.5486 3.05644 15.0988C2.87305 15.2007 2.72532 15.3433 2.61325 15.5267C2.50119 15.7101 2.44515 15.9139 2.44515 16.138V17.1161ZM9.7806 7.33545C10.453 7.33545 11.0286 7.09603 11.5075 6.61719C11.9863 6.13835 12.2258 5.56272 12.2258 4.8903C12.2258 4.21789 11.9863 3.64226 11.5075 3.16341C11.0286 2.68457 10.453 2.44515 9.7806 2.44515C9.10819 2.44515 8.53256 2.68457 8.05371 3.16341C7.57487 3.64226 7.33545 4.21789 7.33545 4.8903C7.33545 5.56272 7.57487 6.13835 8.05371 6.61719C8.53256 7.09603 9.10819 7.33545 9.7806 7.33545Z" fill="#374FA1"/>
</svg>
